<?xml version="1.0" encoding="UTF-8"?>
<svg width="674px" height="596px" viewBox="0 0 674 596" version="1.1" xmlns="http://www.w3.org/2000/svg" xmlns:xlink="http://www.w3.org/1999/xlink">
    <!-- Generator: Sketch 51.1 (57501) - http://www.bohemiancoding.com/sketch -->
    <title>Group</title>
    <desc>Created with Sketch.</desc>
    <defs></defs>
    <g id="Page-1" stroke="none" stroke-width="1" fill="none" fill-rule="evenodd">
        <g id="Group" transform="translate(-13.000000, -33.000000)">
            <g id="Group-8" transform="translate(69.000000, 33.000000)">
                <polygon id="Fill-5" fill="#E6E6E6" points="0.87150982 0.840013965 124.126515 0.840013965 124.126515 54.8400162 0.87150982 54.8400162"></polygon>
                <polygon id="Stroke-7" stroke="#000000" stroke-width="1.5" points="0.87150982 0.840013965 124.126515 0.840013965 124.126515 54.8400162 0.87150982 54.8400162"></polygon>
            </g>
            <text id="DataParser" font-family="Helvetica" font-size="12.9600005" font-weight="normal" fill="#000000">
                <tspan x="96" y="65.5">DataParser</tspan>
            </text>
            <g id="Group-13" transform="translate(247.500000, 33.000000)">
                <polygon id="Fill-10" fill="#E6E6E6" points="1.18276729 0.840013965 124.437772 0.840013965 124.437772 54.8400162 1.18276729 54.8400162"></polygon>
                <polygon id="Stroke-12" stroke="#000000" stroke-width="1.5" points="1.18276729 0.840013965 124.437772 0.840013965 124.437772 54.8400162 1.18276729 54.8400162"></polygon>
            </g>
            <text id="Network" font-family="Helvetica" font-size="12.9600005" font-weight="normal" fill="#000000">
                <tspan x="285" y="65.5">Network</tspan>
            </text>
            <g id="Group-18" transform="translate(426.000000, 33.000000)">
                <polygon id="Fill-15" fill="#E6E6E6" points="1.49335808 0.840013965 124.693363 0.840013965 124.693363 54.8400162 1.49335808 54.8400162"></polygon>
                <polygon id="Stroke-17" stroke="#000000" stroke-width="1.5" points="1.49335808 0.840013965 124.693363 0.840013965 124.693363 54.8400162 1.49335808 54.8400162"></polygon>
            </g>
            <text id="Neuron" font-family="Helvetica" font-size="12.9600005" font-weight="normal" fill="#000000">
                <tspan x="468" y="65.5">Neuron</tspan>
            </text>
            <g id="Group-23" transform="translate(247.500000, 162.000000)">
                <polygon id="Fill-20" fill="#E6E6E6" points="1.18276729 1.44001937 124.437772 1.44001937 124.437772 55.4400216 1.18276729 55.4400216"></polygon>
                <polygon id="Stroke-22" stroke="#000000" stroke-width="1.5" points="1.18276729 1.44001937 124.437772 1.44001937 124.437772 55.4400216 1.18276729 55.4400216"></polygon>
            </g>
            <text id="NetworkDelegate" font-family="Helvetica" font-size="12.9600005" font-weight="normal" fill="#000000">
                <tspan x="258" y="196">NetworkDelegate</tspan>
            </text>
            <g id="Group-28" transform="translate(69.000000, 292.500000)">
                <polygon id="Fill-25" fill="#E6E6E6" points="0.867326846 0.540024765 190.438066 0.540024765 190.438066 54.540027 0.867326846 54.540027"></polygon>
                <polygon id="Stroke-27" stroke="#000000" stroke-width="1.5" points="0.867326846 0.540024765 190.438066 0.540024765 190.438066 54.540027 0.867326846 54.540027"></polygon>
            </g>
            <text id="StandardNetworkDelegate" font-family="Helvetica" font-size="12.9600005" font-weight="normal" fill="#000000">
                <tspan x="85.5" y="325">StandardNetworkDelegate</tspan>
            </text>
            <g id="Group-33" transform="translate(360.000000, 292.500000)">
                <polygon id="Fill-30" fill="#E6E6E6" points="1.17679604 0.540024765 190.699385 0.540024765 190.699385 54.540027 1.17679604 54.540027"></polygon>
                <polygon id="Stroke-32" stroke="#000000" stroke-width="1.5" points="1.17679604 0.540024765 190.699385 0.540024765 190.699385 54.540027 1.17679604 54.540027"></polygon>
            </g>
            <text id="MainThreadNetworkDelegate" font-family="Helvetica" font-size="12.9600005" font-weight="normal" fill="#000000">
                <tspan x="369" y="325">MainThreadNetworkDelegate</tspan>
            </text>
            <g id="Group-45" transform="translate(163.500000, 60.000000)">
                <path d="M208.421831,0.84001509 L264.432472,0.84001509" id="Stroke-35" stroke="#000000" stroke-width="1.5"></path>
                <path d="M146.810126,103.440019 L146.810126,30.2592055" id="Stroke-37" stroke="#000000" stroke-width="1.5"></path>
                <polyline id="Stroke-38" stroke="#000000" stroke-width="1.5" points="154.09151 43.0896169 146.810126 29.0496163 139.528743 43.0896169"></polyline>
                <path d="M1.18246059,233.040025 L99.7835812,168.434411" id="Stroke-39" stroke="#000000" stroke-width="1.5"></path>
                <polygon id="Stroke-40" stroke="#000000" stroke-width="1.5" points="115.533773 158.120422 105.127019 176.026812 94.4289639 160.842011"></polygon>
                <path d="M292.437792,233.040025 L194.912064,168.510022" id="Stroke-41" stroke="#000000" stroke-width="1.5"></path>
                <polygon id="Stroke-42" stroke="#000000" stroke-width="1.5" points="179.206692 158.120422 200.300288 160.939211 189.523841 176.080833"></polygon>
                <polygon id="Fill-43" fill="#E6E6E6" points="17.9856528 362.64003 141.209062 362.64003 141.209062 416.640032 17.9856528 416.640032"></polygon>
                <polygon id="Stroke-44" stroke="#000000" stroke-width="1.5" points="17.9856528 362.64003 141.209062 362.64003 141.209062 416.640032 17.9856528 416.640032"></polygon>
            </g>
            <text id="SpikeLogger" font-family="Helvetica" font-size="12.9600005" font-weight="normal" fill="#000000">
                <tspan x="205.5" y="454">SpikeLogger</tspan>
            </text>
            <g id="Group-50" transform="translate(22.500000, 421.500000)">
                <polygon id="Fill-47" fill="#E6E6E6" points="1.18275795 1.14003017 124.437763 1.14003017 124.437763 55.1400324 1.18275795 55.1400324"></polygon>
                <polygon id="Stroke-49" stroke="#000000" stroke-width="1.5" points="1.18275795 1.14003017 124.437763 1.14003017 124.437763 55.1400324 1.18275795 55.1400324"></polygon>
            </g>
            <text id="LearningLogger" font-family="Helvetica" font-size="12.9600005" font-weight="normal" fill="#000000">
                <tspan x="37.5" y="454">LearningLogger</tspan>
            </text>
            <g id="Group-59" transform="translate(85.500000, 348.000000)">
                <path d="M0.561377448,74.6400302 L23.5549669,17.2920494" id="Stroke-52" stroke="#000000" stroke-width="1.5"></path>
                <polygon id="Stroke-54" stroke="#000000" stroke-width="1.5" points="30.4261093 0.163205462 32.4582464 20.5968495 14.6516874 13.998006"></polygon>
                <path d="M157.744118,74.6400302 L134.750517,17.2920494" id="Stroke-55" stroke="#000000" stroke-width="1.5"></path>
                <polygon id="Stroke-56" stroke="#000000" stroke-width="1.5" points="127.879386 0.163205462 143.653819 13.998006 125.847249 20.5968495"></polygon>
                <polygon id="Fill-57" fill="#E6E6E6" points="309.313189 74.6400302 432.813913 74.6400302 432.813913 128.640032 309.313189 128.640032"></polygon>
                <polygon id="Stroke-58" stroke="#000000" stroke-width="1.5" points="309.313189 74.6400302 432.813913 74.6400302 432.813913 128.640032 309.313189 128.640032"></polygon>
            </g>
            <text id="QtDisplay" font-family="Helvetica" font-size="12.9600005" font-weight="normal" fill="#000000">
                <tspan x="426" y="454">QtDisplay</tspan>
            </text>
            <g id="Group-66" transform="translate(237.000000, 348.000000)">
                <path d="M220.011918,74.6400302 L220.011918,18.6096278" id="Stroke-61" stroke="#000000" stroke-width="1.5"></path>
                <polygon id="Stroke-63" stroke="#000000" stroke-width="1.5" points="220.011918 0.249627065 229.56408 18.6096278 210.459755 18.6096278"></polygon>
                <polygon id="Fill-64" fill="#E6E6E6" points="0.874070926 204.240036 124.490292 204.240036 124.490292 258.240038 0.874070926 258.240038"></polygon>
                <polygon id="Stroke-65" stroke="#000000" stroke-width="1.5" points="0.874070926 204.240036 124.490292 204.240036 124.490292 258.240038 0.874070926 258.240038"></polygon>
            </g>
            <g id="Group-68" transform="translate(262.500000, 571.000000)" fill="#000000" font-family="Helvetica" font-size="12.9600005" font-weight="normal">
                <text id="InputV">
                    <tspan x="0.750653936" y="13.14006">InputV</tspan>
                </text>
                <text id="iewer">
                    <tspan x="39.5763954" y="13.14006">iewer</tspan>
                </text>
            </g>
            <g id="Group-72" transform="translate(394.500000, 552.000000)">
                <polygon id="Fill-69" fill="#E6E6E6" points="0.560273359 0.240035565 123.815278 0.240035565 123.815278 54.2400378 0.560273359 54.2400378"></polygon>
                <polygon id="Stroke-71" stroke="#000000" stroke-width="1.5" points="0.560273359 0.240035565 123.815278 0.240035565 123.815278 54.2400378 0.560273359 54.2400378"></polygon>
            </g>
            <g id="Group-74" transform="translate(415.000000, 571.000000)" fill="#000000" font-family="Helvetica" font-size="12.9600005" font-weight="normal">
                <text id="OutputV">
                    <tspan x="0.0578088889" y="13.14006">OutputV</tspan>
                </text>
                <text id="iewer">
                    <tspan x="48.6321857" y="13.14006">iewer</tspan>
                </text>
            </g>
            <g id="Group-78" transform="translate(550.500000, 552.000000)">
                <polygon id="Fill-75" fill="#E6E6E6" points="0.249029896 0.240035565 123.504035 0.240035565 123.504035 54.2400378 0.249029896 54.2400378"></polygon>
                <polygon id="Stroke-77" stroke="#000000" stroke-width="1.5" points="0.249029896 0.240035565 123.504035 0.240035565 123.504035 54.2400378 0.249029896 54.2400378"></polygon>
            </g>
            <g id="Group-80" transform="translate(565.000000, 571.000000)" fill="#000000" font-family="Helvetica" font-size="12.9600005" font-weight="normal">
                <text id="PotentialV">
                    <tspan x="0.362580645" y="13.14006">PotentialV</tspan>
                </text>
                <text id="iewer">
                    <tspan x="60.6125837" y="13.14006">iewer</tspan>
                </text>
            </g>
            <g id="Group-94" transform="translate(291.000000, 477.000000)">
                <path d="M134.677383,16.9092223 L134.677383,27.1692228 C134.677383,34.0164554 130.94156,37.440034 123.469836,37.440034 L19.2396425,37.440034 C11.7679516,37.440034 8.03209487,41.0400089 8.03209487,48.2400344 L8.03209487,72.8208463" id="Stroke-81" stroke="#000000" stroke-width="1.5"></path>
                <polygon id="Fill-83" fill="#000000" points="134.677383 0.70922166 139.619878 8.809222 134.677383 16.9092223 129.734888 8.809222"></polygon>
                <polygon id="Stroke-84" stroke="#000000" stroke-width="1.5" points="134.677383 0.70922166 139.619878 8.809222 134.677383 16.9092223 129.734888 8.809222"></polygon>
                <polyline id="Stroke-85" stroke="#000000" stroke-width="1.5" points="0.747188903 59.9904349 8.03209487 74.0304355 15.3170008 59.9904349"></polyline>
                <path d="M164.937762,16.9092223 L164.937762,72.8208463" id="Stroke-86" stroke="#000000" stroke-width="1.5"></path>
                <polygon id="Fill-87" fill="#000000" points="164.937762 0.70922166 169.880257 8.809222 164.937762 16.9092223 159.995267 8.809222"></polygon>
                <polygon id="Stroke-88" stroke="#000000" stroke-width="1.5" points="164.937762 0.70922166 169.880257 8.809222 164.937762 16.9092223 159.995267 8.809222"></polygon>
                <polyline id="Stroke-89" stroke="#000000" stroke-width="1.5" points="157.652856 59.9904349 164.937762 74.0304355 172.222668 59.9904349"></polyline>
                <path d="M196.318895,16.9092223 L196.318895,27.1692228 C196.318895,34.0164554 200.054718,37.440034 207.526443,37.440034 L310.635881,37.440034 C318.107606,37.440034 321.843429,41.0400089 321.843429,48.2400344 L321.843429,72.8208463" id="Stroke-90" stroke="#000000" stroke-width="1.5"></path>
                <polygon id="Fill-91" fill="#000000" points="196.318895 0.70922166 201.26139 8.809222 196.318895 16.9092223 191.3764 8.809222"></polygon>
                <polygon id="Stroke-92" stroke="#000000" stroke-width="1.5" points="196.318895 0.70922166 201.26139 8.809222 196.318895 16.9092223 191.3764 8.809222"></polygon>
                <polyline id="Stroke-93" stroke="#000000" stroke-width="1.5" points="314.558523 59.9904349 321.843429 74.0304355 329.128335 59.9904349"></polyline>
            </g>
            <rect id="Rectangle" fill-rule="nonzero" x="0" y="0" width="699" height="646.5"></rect>
            <rect id="Rectangle-2" stroke="#8FBCE4" stroke-width="1.5" fill-opacity="0.168789629" fill="#8FBCE4" fill-rule="nonzero" x="14.25" y="395.25" width="672" height="232.5"></rect>
            <text id="Add-ons" font-family="Helvetica" font-size="15" font-weight="normal" fill="#4A4A4A">
                <tspan x="615.56543" y="391.5">Add-ons</tspan>
            </text>
        </g>
    </g>
</svg>